<svg xmlns="http://www.w3.org/2000/svg" id="arduino_1" width="16" height="16" data-name="arduino 1" viewBox="0 0 16 16"><defs><style>.cls-1{fill:#0ca1a6}.cls-2{fill:#fff}</style></defs><title>Arduino</title><circle cx="8" cy="8" r="8" class="cls-1"/><path d="M11.42,4.9h-.19A4,4,0,0,0,8,6.89a4,4,0,0,0-3.23-2H4.54A3.24,3.24,0,0,0,1.45,8a3.25,3.25,0,0,0,3.13,3.1h.19A4.09,4.09,0,0,0,8,9.08a4.09,4.09,0,0,0,3.23,2h.23A3.24,3.24,0,0,0,14.55,8,3.25,3.25,0,0,0,11.42,4.9Z" class="cls-2"/><path d="M8.8,8s1,2,2.6,1.9a2.06,2.06,0,0,0,2-1.9,2.06,2.06,0,0,0-2-1.9C9.7,6,8.8,8,8.8,8Z" class="cls-1"/><path d="M7.3,8s-1,2-2.6,1.9A2.06,2.06,0,0,1,2.7,8a2.06,2.06,0,0,1,2-1.9C6.4,6,7.3,8,7.3,8Z" class="cls-1"/><rect width="2" height=".7" x="3.8" y="7.7" class="cls-2"/><rect width=".7" height="2" x="11" y="7" class="cls-2"/><rect width="2" height=".7" x="10.3" y="7.7" class="cls-2"/></svg>