<svg xmlns="http://www.w3.org/2000/svg" xmlns:xlink="http://www.w3.org/1999/xlink" x="0" y="0" version="1.1" viewBox="0 0 16 16" xml:space="preserve" style="enable-background:new 0 0 16 16"><style type="text/css">.st0{fill:#f6f6f6}.st1{fill:#424242}.st2{fill:#00979c}</style><g id="outline"><path d="M13,5V0l-3,2V0H6v2L3,0v5H0v11h16V5H13z" class="st0"/></g><g id="icon_x5F_bg"><path d="M8,7L4,4V2l3,2V0h2v4l3-2v2L8,7z M14,6v8H2V6H1v9h14V6H14z" class="st1"/><rect width="2" height="2" x="3" y="8" class="st2"/><rect width="2" height="2" x="11" y="8" class="st2"/><rect width="2" height="2" x="7" y="8" class="st2"/><rect width="2" height="2" x="9" y="11" class="st2"/><rect width="2" height="2" x="5" y="11" class="st2"/></g></svg>