<svg xmlns="http://www.w3.org/2000/svg" xmlns:xlink="http://www.w3.org/1999/xlink" x="0" y="0" version="1.1" viewBox="0 0 16 16" xml:space="preserve" style="enable-background:new 0 0 16 16"><style type="text/css">.st0{fill:#2d2d30}.st1{fill:none}.st2{fill:#00b7b7}.st3{fill:#c5c5c5}.st4{fill:#2b282e}</style><g id="outline"><polygon points="15 1 1 1 1 5 3 5 3 10 1 10 1 14 10 14 10 11 12 11 12 8 15 8" class="st0"/></g><g id="icon_x5F_bg"><rect width="16" height="16" class="st1"/><path d="M14.3,7l-4.2,8H8.5l-2.1-4h1.9l1.1,2.4l3-6.4H14.3z" class="st2"/><g><rect width="5" height="2" x="4" y="5" class="st3"/><polygon points="14 6 14 5 10 5 10 7 11.2 7 11.7 6" class="st3"/><polygon points="9.8 10 10.8 8 4 8 4 10 4.7 10 8.9 10" class="st3"/><rect width="6" height="2" x="8" y="2" class="st3"/><polygon points="2 11 2 13 6.3 13 5.2 11" class="st3"/><rect width="5" height="2" x="2" y="2" class="st3"/></g></g><g id="icon_x5F_fg"><path d="M14.3,7l-4.2,8H8.5l-2.1-4h1.9l1.1,2.4l3-6.4H14.3 M16,6h-4.3l-2.4,5l-0.5-1H4.7l3.2,6h2.9L16,6L16,6z" class="st4"/></g></svg>