<svg xmlns="http://www.w3.org/2000/svg" xmlns:xlink="http://www.w3.org/1999/xlink" id="图层_1" x="0" y="0" version="1.1" viewBox="0 0 16 16" xml:space="preserve" style="enable-background:new 0 0 16 16"><style type="text/css">.st0{fill:#2d2d30}.st1{fill:#c5c5c5}.st2{fill:#00b7b7}.st3{fill:#f6f6f6;fill-opacity:0}</style><g id="outline"><g><path d="M13,5V0l-3,2V0H6v2L3,0v5H0v11h16V5H13z" class="st0"/></g></g><g id="icon_x5F_bg"><path d="M8,7L4,4V2l3,2V0h2v4l3-2v2L8,7z M14,6v8H2V6H1v9h14V6H14z" class="st1"/><rect width="2" height="2" x="3" y="8" class="st2"/><rect width="2" height="2" x="11" y="8" class="st2"/><rect width="2" height="2" x="7" y="8" class="st2"/><rect width="2" height="2" x="9" y="11" class="st2"/><rect width="2" height="2" x="5" y="11" class="st2"/></g><path id="canvas_1_" d="M39,9.8H23v-16h16V9.8z" class="st3"/></svg>